<mxfile host="65bd71144e">
    <diagram id="7pzUA9U_TGJYkWVK5Ic6" name="Page-1">
        <mxGraphModel dx="942" dy="650" grid="1" gridSize="10" guides="1" tooltips="1" connect="1" arrows="1" fold="1" page="1" pageScale="1" pageWidth="827" pageHeight="1169" math="0" shadow="0">
            <root>
                <mxCell id="0"/>
                <mxCell id="1" parent="0"/>
                <mxCell id="26" style="edgeStyle=none;html=1;entryX=0;entryY=0.5;entryDx=0;entryDy=0;strokeWidth=2;fontSize=16;" parent="1" source="3" target="36" edge="1">
                    <mxGeometry relative="1" as="geometry">
                        <mxPoint x="509" y="290" as="targetPoint"/>
                    </mxGeometry>
                </mxCell>
                <mxCell id="3" value="" style="verticalLabelPosition=bottom;shadow=0;dashed=0;align=center;html=1;verticalAlign=top;shape=mxgraph.electrical.opto_electronics.opto-coupler;direction=west;flipV=1;flipH=1;" parent="1" vertex="1">
                    <mxGeometry x="373" y="260" width="90" height="60" as="geometry"/>
                </mxCell>
                <mxCell id="9" style="edgeStyle=none;html=1;entryX=0;entryY=0.5;entryDx=0;entryDy=0;fontSize=16;" parent="1" source="5" target="8" edge="1">
                    <mxGeometry relative="1" as="geometry"/>
                </mxCell>
                <mxCell id="20" style="edgeStyle=none;html=1;entryX=0.5;entryY=0;entryDx=0;entryDy=0;fontSize=16;" parent="1" source="5" target="19" edge="1">
                    <mxGeometry relative="1" as="geometry">
                        <Array as="points">
                            <mxPoint x="129" y="370"/>
                            <mxPoint x="154" y="370"/>
                        </Array>
                    </mxGeometry>
                </mxCell>
                <mxCell id="5" value="Anemometer probe" style="shape=sumEllipse;perimeter=ellipsePerimeter;whiteSpace=wrap;html=1;backgroundOutline=1;fillColor=#647687;fontColor=#ffffff;strokeColor=#314354;" parent="1" vertex="1">
                    <mxGeometry x="89" y="250" width="80" height="80" as="geometry"/>
                </mxCell>
                <mxCell id="11" style="edgeStyle=none;html=1;entryX=-0.022;entryY=0.5;entryDx=0;entryDy=0;entryPerimeter=0;fontSize=16;" parent="1" source="8" target="3" edge="1">
                    <mxGeometry relative="1" as="geometry"/>
                </mxCell>
                <mxCell id="8" value="" style="verticalLabelPosition=bottom;shadow=0;dashed=0;align=center;html=1;verticalAlign=top;shape=mxgraph.electrical.logic_gates.buffer2;fontSize=16;" parent="1" vertex="1">
                    <mxGeometry x="219" y="260" width="100" height="60" as="geometry"/>
                </mxCell>
                <mxCell id="37" style="edgeStyle=none;html=1;entryX=0;entryY=0.5;entryDx=0;entryDy=0;strokeWidth=2;" edge="1" parent="1" source="10" target="30">
                    <mxGeometry relative="1" as="geometry"/>
                </mxCell>
                <mxCell id="10" value="" style="verticalLabelPosition=bottom;shadow=0;dashed=0;align=center;html=1;verticalAlign=top;shape=mxgraph.electrical.opto_electronics.opto-coupler;direction=west;flipV=1;flipH=1;" parent="1" vertex="1">
                    <mxGeometry x="373" y="425" width="90" height="60" as="geometry"/>
                </mxCell>
                <mxCell id="18" value="Probe is detected by checking for shorted wire between two of probe connector pins" style="text;html=1;strokeColor=none;fillColor=none;align=center;verticalAlign=middle;whiteSpace=wrap;rounded=0;fontSize=16;" parent="1" vertex="1">
                    <mxGeometry x="69" y="495" width="170" height="90" as="geometry"/>
                </mxCell>
                <mxCell id="21" style="edgeStyle=none;html=1;entryX=-0.039;entryY=0.514;entryDx=0;entryDy=0;entryPerimeter=0;fontSize=16;" parent="1" source="19" target="10" edge="1">
                    <mxGeometry relative="1" as="geometry">
                        <Array as="points">
                            <mxPoint x="289" y="455"/>
                        </Array>
                    </mxGeometry>
                </mxCell>
                <mxCell id="19" value="Probe connection detection system" style="rounded=1;whiteSpace=wrap;html=1;fontSize=16;" parent="1" vertex="1">
                    <mxGeometry x="79" y="420" width="150" height="70" as="geometry"/>
                </mxCell>
                <mxCell id="22" value="Probe signal is buffered to ensure proper signal changes detection" style="text;html=1;strokeColor=none;fillColor=none;align=center;verticalAlign=middle;whiteSpace=wrap;rounded=0;fontSize=16;" parent="1" vertex="1">
                    <mxGeometry x="184" y="150" width="170" height="90" as="geometry"/>
                </mxCell>
                <mxCell id="24" value="" style="endArrow=none;dashed=1;html=1;fontSize=16;strokeWidth=2;" parent="1" edge="1">
                    <mxGeometry width="50" height="50" relative="1" as="geometry">
                        <mxPoint x="409" y="630" as="sourcePoint"/>
                        <mxPoint x="409" y="110" as="targetPoint"/>
                    </mxGeometry>
                </mxCell>
                <mxCell id="25" value="Isolation barier" style="text;html=1;strokeColor=none;fillColor=none;align=center;verticalAlign=middle;whiteSpace=wrap;rounded=0;fontSize=16;" parent="1" vertex="1">
                    <mxGeometry x="339" y="70" width="140" height="30" as="geometry"/>
                </mxCell>
                <mxCell id="30" value="GPIO" style="rounded=1;whiteSpace=wrap;html=1;fontSize=16;fillColor=#1ba1e2;fontColor=#ffffff;strokeColor=#006EAF;" parent="1" vertex="1">
                    <mxGeometry x="508.5" y="430" width="100" height="50" as="geometry"/>
                </mxCell>
                <mxCell id="33" value="MPU reads counter in fixed intervals to calculate anemometer revolutions per second and eventualy,&amp;nbsp;based on RPS, wind speed&amp;nbsp;" style="text;html=1;strokeColor=none;fillColor=none;align=center;verticalAlign=middle;whiteSpace=wrap;rounded=0;fontSize=16;" parent="1" vertex="1">
                    <mxGeometry x="540" y="520" width="221" height="110" as="geometry"/>
                </mxCell>
                <mxCell id="34" value="Counting anemometer revolutions in set amout of time" style="text;html=1;strokeColor=none;fillColor=none;align=center;verticalAlign=middle;whiteSpace=wrap;rounded=0;fontSize=16;" parent="1" vertex="1">
                    <mxGeometry x="650" y="245" width="167" height="90" as="geometry"/>
                </mxCell>
                <mxCell id="35" value="Voltage isolation prevents&amp;nbsp; damage to digital cirucity in case of any damage to anemometer or their connector" style="text;html=1;strokeColor=none;fillColor=none;align=center;verticalAlign=middle;whiteSpace=wrap;rounded=0;fontSize=16;" parent="1" vertex="1">
                    <mxGeometry x="299" y="640" width="220" height="90" as="geometry"/>
                </mxCell>
                <mxCell id="36" value="TIM16 internal counter" style="rounded=1;whiteSpace=wrap;html=1;fontSize=16;fillColor=#1ba1e2;fontColor=#ffffff;strokeColor=#006EAF;" vertex="1" parent="1">
                    <mxGeometry x="493.25" y="245" width="130.5" height="90" as="geometry"/>
                </mxCell>
                <mxCell id="38" value="MPU" style="swimlane;whiteSpace=wrap;html=1;fillColor=#0050ef;fontColor=#ffffff;strokeColor=#001DBC;" vertex="1" parent="1">
                    <mxGeometry x="479" y="210" width="161" height="300" as="geometry"/>
                </mxCell>
                <mxCell id="39" value="&lt;font style=&quot;font-size: 16px;&quot;&gt;I2C IF&lt;/font&gt;" style="rounded=1;whiteSpace=wrap;html=1;fillColor=#1ba1e2;fontColor=#ffffff;strokeColor=#006EAF;" vertex="1" parent="38">
                    <mxGeometry x="29" y="150" width="101" height="40" as="geometry"/>
                </mxCell>
                <mxCell id="42" style="edgeStyle=none;html=1;entryX=1;entryY=0.5;entryDx=0;entryDy=0;strokeWidth=2;fontSize=15;" edge="1" parent="1" source="40" target="39">
                    <mxGeometry relative="1" as="geometry"/>
                </mxCell>
                <mxCell id="40" value="&lt;font style=&quot;font-size: 15px;&quot;&gt;OnBoard thermometer&lt;/font&gt;" style="whiteSpace=wrap;html=1;fillColor=#0050ef;strokeColor=#001DBC;fontColor=#ffffff;rounded=1;" vertex="1" parent="1">
                    <mxGeometry x="679.5" y="350" width="120" height="60" as="geometry"/>
                </mxCell>
                <mxCell id="41" value="" style="edgeStyle=none;html=1;strokeWidth=2;fontSize=16;" edge="1" parent="1" source="39" target="40">
                    <mxGeometry relative="1" as="geometry"/>
                </mxCell>
            </root>
        </mxGraphModel>
    </diagram>
</mxfile>